<svg width="25" height="24" viewBox="0 0 25 24" fill="none" xmlns="http://www.w3.org/2000/svg">
<g clip-path="url(#clip0_1383_579)">
<path d="M21.68 5.01014L18.6 2.45014C18.18 2.10014 17.55 2.15014 17.19 2.58014C16.84 3.00014 16.9 3.63014 17.32 3.99014L20.39 6.55014C20.81 6.90014 21.44 6.85014 21.8 6.42014C22.16 6.00014 22.1 5.37014 21.68 5.01014V5.01014ZM4.60001 6.55014L7.67001 3.99014C8.10001 3.63014 8.16001 3.00014 7.80001 2.58014C7.45001 2.15014 6.82001 2.10014 6.40001 2.45014L3.32001 5.01014C2.90001 5.37014 2.84001 6.00014 3.20001 6.42014C3.55001 6.85014 4.18001 6.90014 4.60001 6.55014ZM12.5 4.00014C7.53001 4.00014 3.50001 8.03014 3.50001 13.0001C3.50001 17.9701 7.53001 22.0001 12.5 22.0001C17.47 22.0001 21.5 17.9701 21.5 13.0001C21.5 8.03014 17.47 4.00014 12.5 4.00014ZM12.5 20.0001C8.64001 20.0001 5.50001 16.8601 5.50001 13.0001C5.50001 9.14014 8.64001 6.00014 12.5 6.00014C16.36 6.00014 19.5 9.14014 19.5 13.0001C19.5 16.8601 16.36 20.0001 12.5 20.0001ZM15.5 12.0001H13.5V10.0001C13.5 9.45014 13.05 9.00014 12.5 9.00014C11.95 9.00014 11.5 9.45014 11.5 10.0001V12.0001H9.50001C8.95001 12.0001 8.50001 12.4501 8.50001 13.0001C8.50001 13.5501 8.95001 14.0001 9.50001 14.0001H11.5V16.0001C11.5 16.5501 11.95 17.0001 12.5 17.0001C13.05 17.0001 13.5 16.5501 13.5 16.0001V14.0001H15.5C16.05 14.0001 16.5 13.5501 16.5 13.0001C16.5 12.4501 16.05 12.0001 15.5 12.0001Z" fill="#216DAB"/>
</g>
<defs>
<clipPath id="clip0_1383_579">
<rect width="24" height="24" fill="white" transform="translate(0.5)"/>
</clipPath>
</defs>
</svg>
