<svg width="14" height="14" viewBox="0 0 14 14" fill="none" xmlns="http://www.w3.org/2000/svg">
<g clip-path="url(#clip0_148_1087)">
<path d="M7 0.875C8.62445 0.875 10.1824 1.52031 11.331 2.66897C12.4797 3.81763 13.125 5.37555 13.125 7C13.125 8.62445 12.4797 10.1824 11.331 11.331C10.1824 12.4797 8.62445 13.125 7 13.125C5.37555 13.125 3.81763 12.4797 2.66897 11.331C1.52031 10.1824 0.875 8.62445 0.875 7C0.875 5.37555 1.52031 3.81763 2.66897 2.66897C3.81763 1.52031 5.37555 0.875 7 0.875ZM7 3.5C6.88891 3.49991 6.77902 3.52298 6.67735 3.56775C6.57568 3.61252 6.48447 3.67801 6.40954 3.76002C6.33461 3.84203 6.2776 3.93877 6.24217 4.04406C6.20674 4.14935 6.19365 4.26087 6.20375 4.3715L6.52312 7.87675C6.53551 7.9946 6.59109 8.10369 6.67915 8.18298C6.7672 8.26227 6.8815 8.30615 7 8.30615C7.1185 8.30615 7.2328 8.26227 7.32085 8.18298C7.40891 8.10369 7.46449 7.9946 7.47688 7.87675L7.79538 4.3715C7.80547 4.26094 7.79241 4.1495 7.75702 4.04427C7.72164 3.93904 7.66472 3.84234 7.58988 3.76034C7.51504 3.67834 7.42394 3.61284 7.32237 3.56802C7.22081 3.52319 7.11102 3.50003 7 3.5ZM7 10.5C7.18565 10.5 7.3637 10.4262 7.49497 10.295C7.62625 10.1637 7.7 9.98565 7.7 9.8C7.7 9.61435 7.62625 9.4363 7.49497 9.30503C7.3637 9.17375 7.18565 9.1 7 9.1C6.81435 9.1 6.6363 9.17375 6.50503 9.30503C6.37375 9.4363 6.3 9.61435 6.3 9.8C6.3 9.98565 6.37375 10.1637 6.50503 10.295C6.6363 10.4262 6.81435 10.5 7 10.5Z" fill="#CC1F12"/>
</g>
<defs>
<clipPath id="clip0_148_1087">
<rect width="14" height="14" fill="white"/>
</clipPath>
</defs>
</svg>
