<svg width="70" height="69" viewBox="0 0 70 69" fill="none" xmlns="http://www.w3.org/2000/svg">
<g clip-path="url(#clip0_829_372)">
<path d="M29.8201 18.8649C29.0035 19.2733 28.5951 20.1716 28.8401 20.8249C29.2485 21.8049 31.3718 22.0499 40.2735 22.0499C50.4818 22.0499 51.2168 21.9683 51.2168 20.4983C51.2168 19.6816 50.6451 18.7016 49.9101 18.4566C47.7868 17.6399 31.2901 17.9666 29.8201 18.8649Z" fill="#4D5963"/>
<path d="M52.2781 29.5633C45.4181 36.5866 43.0498 39.6083 42.3148 42.0583C40.5181 48.5916 41.4164 49.735 47.2148 48.1833C50.1548 47.4483 52.5231 45.4883 60.4448 37.73C65.6714 32.5033 69.9998 27.8483 69.9998 27.3583C69.9998 26.0516 63.9564 20.4166 62.5681 20.4166C61.9148 20.4166 57.2598 24.5816 52.2781 29.5633ZM64.3648 26.6233C65.2631 27.7666 64.3648 28.9916 57.2598 36.015C52.0331 41.16 48.3581 44.1 47.2964 44.1C45.9898 44.1 45.6631 43.7733 46.0714 42.63C46.5614 41.16 61.8331 25.3166 62.7314 25.3166C63.0581 25.3166 63.7114 25.8883 64.3648 26.6233Z" fill="#4D5963"/>
<path d="M28.9217 27.2767C28.0233 29.4817 30.31 30.2167 38.15 30.2167C46.3167 30.2167 48.5217 29.5633 47.705 27.44C47.2967 26.3783 45.6633 26.1333 38.2317 26.1333C31.4533 26.1333 29.2483 26.3783 28.9217 27.2767Z" fill="#4D5963"/>
<path d="M29.33 34.4633C27.5333 36.6683 29.4933 37.6483 34.965 37.4033C39.5383 37.1583 40.1916 36.995 40.1916 35.525C40.1916 34.1366 39.5383 33.8916 35.21 33.6466C31.8616 33.4833 29.9833 33.7283 29.33 34.4633Z" fill="#4D5963"/>
<path d="M32.5187 40.0081L23.9937 44.5316" stroke="#4CD669" stroke-width="3" stroke-linecap="round"/>
</g>
<path d="M23.0417 2.04161L21 4.00161V24.8266V45.6516L23.1233 47.285C25.9817 49.49 36.2717 49.8166 37.0883 47.6933C37.8233 45.7333 35.8633 44.9166 30.2283 44.9166H25.0833V24.4999V4.08328H34.475H43.8667V7.75828C43.8667 12.8216 46.48 15.5166 51.38 15.5166C53.9933 15.5166 55.1367 15.9249 55.9533 17.1499C57.3417 19.4366 59.3833 18.3749 59.3833 15.1899C59.3833 13.0666 58.3217 11.5149 53.0133 6.28828L46.725 -5.60649e-05H35.8633C25.41 -5.60649e-05 24.92 0.0816106 23.0417 2.04161ZM51.2167 11.2699C49.5833 11.8416 47.95 10.6983 47.95 8.90161V7.10494L50.0733 9.06495C51.2167 10.1266 51.7067 11.1066 51.2167 11.2699Z" fill="#4D5963"/>
<path d="M27.7057 46.8518C26.7066 47.6406 25.787 48.4912 24.742 49.2146C24.637 49.2873 24.4428 49.295 24.3229 49.3222C23.9739 49.4013 23.6958 49.4949 23.3955 49.6931C22.8943 50.0242 22.5472 50.5237 21.9934 50.7911C21.7755 50.8963 21.5476 51.0204 21.3109 51.073C21.1064 51.1184 20.8865 51.1038 20.6952 51.1917C19.9364 51.5403 19.0487 51.3694 18.4325 50.7874C18.0553 50.4312 17.8616 50.0637 17.5719 49.656C17.0877 48.9745 17.0665 48.0304 16.4554 47.4193C16.3777 47.3416 16.3017 47.2612 16.2218 47.1857C16.1227 47.0921 15.9913 47.14 15.8879 47.0521C15.6772 46.873 15.1591 46.2743 15.2351 46.5402C15.4033 47.129 16.0001 47.9588 16.4295 48.4171C17.1039 49.137 18.0242 49.8475 18.9147 50.2792C19.33 50.4805 19.7623 50.6214 20.161 50.8579C20.7196 51.1891 21.1987 51.5617 21.6559 52.0189C21.7846 52.1476 22.2655 52.7891 22.3124 52.7422C22.4377 52.6169 22.5439 52.4749 22.6314 52.3193C22.9193 51.8076 23.3023 51.4442 23.7553 51.0693C24.1228 50.7652 24.459 50.4531 24.8607 50.1939C25.2302 49.9555 25.5333 49.7489 25.7806 49.3778C26.6107 48.1327 27.4925 46.8925 28.1583 45.5461C28.4221 45.0127 28.5648 44.4882 28.8853 43.9882C29.1381 43.5939 29.3643 43.2081 29.731 42.9051C29.8011 42.8473 30.0147 42.6235 30.1094 42.6603C30.4848 42.8063 30.0735 43.6123 30.0166 43.8399C29.9347 44.1674 29.7007 44.4482 30.1242 44.4482C30.2378 44.4482 30.867 44.4305 30.6769 44.515C30.4239 44.6274 30.204 44.6656 29.9461 44.7301C28.9681 44.9746 28.196 45.8463 27.3125 46.288C26.3184 46.7851 25.1938 46.9594 24.1263 47.219C22.9267 47.5108 21.7372 47.8102 20.532 48.0685C19.4564 48.2989 18.5498 48.7144 17.431 48.5136C16.6557 48.3744 15.8873 48.0431 15.1906 47.6827C14.9703 47.5688 14.7526 47.4163 14.5377 47.2895C14.3386 47.172 13.898 46.923 13.781 46.7183C13.6062 46.4124 13.5659 46.3177 13.9146 46.3177C14.0528 46.3177 14.2014 46.3844 14.3671 46.3844C14.4613 46.3844 15.0033 46.3719 14.6861 46.4512" stroke="#4CD669" stroke-width="3" stroke-linecap="round"/>
<path d="M21.7341 50.2643C20.7349 51.0531 19.8153 51.9037 18.7703 52.6271C18.6653 52.6998 18.4711 52.7075 18.3512 52.7347C18.0022 52.8138 17.7241 52.9073 17.4239 53.1056C16.9226 53.4366 16.5755 53.9362 16.0217 54.2036C15.8038 54.3088 15.5759 54.4329 15.3392 54.4855C15.1347 54.5309 14.9148 54.5162 14.7235 54.6042C13.9647 54.9528 13.077 54.7818 12.4608 54.1999C12.0837 53.8437 11.8899 53.4762 11.6003 53.0685C11.116 52.3869 11.0948 51.4429 10.4838 50.8318C10.406 50.754 10.33 50.6737 10.2501 50.5981C10.151 50.5046 10.0196 50.5525 9.91624 50.4646C9.70554 50.2855 9.18743 49.6868 9.2634 49.9527C9.43163 50.5415 10.0284 51.3713 10.4578 51.8296C11.1322 52.5495 12.0525 53.2599 12.943 53.6917C13.3583 53.893 13.7906 54.0339 14.1893 54.2703C14.7479 54.6016 15.227 54.9742 15.6842 55.4313C15.8129 55.5601 16.2939 56.2015 16.3407 56.1547C16.466 56.0294 16.5722 55.8874 16.6597 55.7318C16.9476 55.2201 17.3306 54.8567 17.7837 54.4818C18.1511 54.1777 18.4873 53.8655 18.889 53.6064C19.2585 53.368 19.5616 53.1614 19.8089 52.7903C20.639 51.5452 21.5208 50.305 22.1866 48.9586C22.4504 48.4252 22.5932 47.9006 22.9136 47.4007C23.1664 47.0064 23.3926 46.6205 23.7593 46.3176C23.8294 46.2597 24.0431 46.036 24.1377 46.0728C24.5131 46.2188 24.1018 47.0248 24.0449 47.2523C23.9631 47.5799 23.729 47.8607 24.1525 47.8607C24.2661 47.8607 24.8953 47.8429 24.7052 47.9274C24.4523 48.0399 24.2323 48.0781 23.9745 48.1426C22.9964 48.3871 22.2243 49.2588 21.3409 49.7005C20.3467 50.1976 19.2221 50.3718 18.1546 50.6315C16.955 50.9233 15.7655 51.2227 14.5603 51.4809C13.4847 51.7114 12.5781 52.1269 11.4593 51.9261C10.6841 51.7869 9.91565 51.4556 9.21889 51.0952C8.9986 50.9812 8.78095 50.8288 8.56605 50.702C8.36688 50.5844 7.92633 50.3355 7.80936 50.1308C7.63454 49.8248 7.59418 49.7302 7.94289 49.7302C8.08114 49.7302 8.22971 49.7969 8.39542 49.7969C8.48963 49.7969 9.03166 49.7844 8.71442 49.8637" stroke="#4CD669" stroke-width="3" stroke-linecap="round"/>
<path d="M28.5588 42.5863C27.5596 43.3751 26.64 44.2257 25.595 44.9491C25.4901 45.0218 25.2958 45.0295 25.1759 45.0567C24.8269 45.1358 24.5488 45.2294 24.2486 45.4276C23.7473 45.7587 23.4002 46.2582 22.8464 46.5256C22.6285 46.6308 22.4006 46.7549 22.1639 46.8075C21.9594 46.8529 21.7395 46.8383 21.5482 46.9262C20.7894 47.2748 19.9017 47.1039 19.2855 46.5219C18.9084 46.1657 18.7146 45.7982 18.425 45.3905C17.9407 44.709 17.9195 43.7649 17.3085 43.1538C17.2307 43.0761 17.1547 42.9957 17.0748 42.9202C16.9757 42.8266 16.8444 42.8745 16.7409 42.7866C16.5302 42.6075 16.0121 42.0088 16.0881 42.2747C16.2563 42.8635 16.8531 43.6933 17.2825 44.1516C17.9569 44.8715 18.8773 45.582 19.7677 46.0137C20.183 46.215 20.6153 46.3559 21.0141 46.5924C21.5726 46.9236 22.0517 47.2962 22.5089 47.7534C22.6377 47.8821 23.1186 48.5236 23.1654 48.4767C23.2907 48.3514 23.3969 48.2094 23.4844 48.0538C23.7723 47.5421 24.1553 47.1787 24.6084 46.8038C24.9758 46.4997 25.312 46.1875 25.7137 45.9284C26.0832 45.69 26.3863 45.4834 26.6336 45.1123C27.4637 43.8672 28.3455 42.627 29.0113 41.2806C29.2751 40.7472 29.4179 40.2227 29.7383 39.7227C29.9911 39.3284 30.2173 38.9426 30.584 38.6396C30.6541 38.5818 30.8678 38.358 30.9624 38.3948C31.3378 38.5408 30.9265 39.3468 30.8697 39.5744C30.7878 39.9019 30.5538 40.1827 30.9772 40.1827C31.0909 40.1827 31.72 40.165 31.5299 40.2495C31.277 40.3619 31.057 40.4001 30.7992 40.4646C29.8211 40.7091 29.049 41.5808 28.1656 42.0225C27.1714 42.5196 26.0468 42.6939 24.9793 42.9535C23.7797 43.2453 22.5902 43.5447 21.385 43.803C20.3094 44.0334 19.4028 44.4489 18.284 44.2481C17.5088 44.1089 16.7404 43.7776 16.0436 43.4172C15.8233 43.3033 15.6057 43.1508 15.3908 43.024C15.1916 42.9065 14.751 42.6575 14.6341 42.4528C14.4592 42.1469 14.4189 42.0522 14.7676 42.0522C14.9058 42.0522 15.0544 42.1189 15.2201 42.1189C15.3143 42.1189 15.8564 42.1064 15.5391 42.1857" stroke="#4CD669" stroke-width="3" stroke-linecap="round"/>
<path d="M23.321 47.4901C22.3219 48.2789 21.4022 49.1295 20.3572 49.8529C20.2523 49.9256 20.058 49.9333 19.9381 49.9605C19.5891 50.0396 19.311 50.1332 19.0108 50.3314C18.5095 50.6625 18.1625 51.162 17.6087 51.4294C17.3907 51.5346 17.1628 51.6587 16.9261 51.7113C16.7216 51.7568 16.5018 51.7421 16.3104 51.83C15.5516 52.1786 14.6639 52.0077 14.0477 51.4257C13.6706 51.0695 13.4768 50.702 13.1872 50.2943C12.7029 49.6128 12.6817 48.6687 12.0707 48.0576C11.9929 47.9799 11.917 47.8995 11.837 47.824C11.738 47.7304 11.6066 47.7783 11.5031 47.6904C11.2925 47.5113 10.7743 46.9127 10.8503 47.1785C11.0185 47.7673 11.6153 48.5971 12.0447 49.0554C12.7191 49.7753 13.6395 50.4858 14.5299 50.9175C14.9452 51.1188 15.3775 51.2597 15.7763 51.4962C16.3348 51.8274 16.8139 52.2 17.2711 52.6572C17.3999 52.7859 17.8808 53.4274 17.9277 53.3805C18.0529 53.2552 18.1591 53.1132 18.2466 52.9576C18.5345 52.4459 18.9175 52.0825 19.3706 51.7076C19.738 51.4035 20.0742 51.0914 20.4759 50.8322C20.8454 50.5938 21.1485 50.3872 21.3958 50.0162C22.2259 48.771 23.1077 47.5308 23.7735 46.1845C24.0373 45.651 24.1801 45.1265 24.5005 44.6265C24.7533 44.2322 24.9795 43.8464 25.3462 43.5434C25.4163 43.4856 25.63 43.2618 25.7246 43.2986C26.1 43.4446 25.6887 44.2506 25.6319 44.4782C25.55 44.8057 25.316 45.0865 25.7394 45.0865C25.8531 45.0865 26.4822 45.0688 26.2921 45.1533C26.0392 45.2657 25.8192 45.3039 25.5614 45.3684C24.5833 45.6129 23.8112 46.4846 22.9278 46.9263C21.9336 47.4234 20.809 47.5977 19.7415 47.8573C18.542 48.1491 17.3524 48.4485 16.1472 48.7068C15.0716 48.9373 14.165 49.3527 13.0462 49.1519C12.271 49.0127 11.5026 48.6814 10.8058 48.321C10.5855 48.2071 10.3679 48.0546 10.153 47.9278C9.9538 47.8103 9.51324 47.5613 9.39627 47.3566C9.22145 47.0507 9.18109 46.956 9.5298 46.956C9.66805 46.956 9.81662 47.0228 9.98234 47.0228C10.0765 47.0228 10.6186 47.0102 10.3013 47.0895" stroke="#4CD669" stroke-width="3" stroke-linecap="round"/>
<g clip-path="url(#clip1_829_372)">
<path d="M5 47.25C5 38.4184 12.1684 31.25 21 31.25C29.8316 31.25 37 38.4184 37 47.25C37 56.0816 29.8316 63.25 21 63.25C12.1684 63.25 5 56.0816 5 47.25ZM8.91434 49.5357L15.1968 55.8182C16.4548 57.0761 18.5295 57.0987 19.7916 55.8123L33.0682 42.5357C34.3364 41.2674 34.3364 39.2151 33.0682 37.9468C31.7999 36.6786 29.7476 36.6786 28.4793 37.9468L17.4982 48.928L13.5032 44.9468C13.5028 44.9464 13.5024 44.9461 13.502 44.9457C12.2336 43.6786 10.1822 43.679 8.91434 44.9468C7.64605 46.2151 7.64605 48.2674 8.91434 49.5357Z" fill="#4CD669" stroke="#4D5963" stroke-width="3"/>
</g>
<defs>
<clipPath id="clip0_829_372">
<rect width="49" height="49" fill="white" transform="translate(21)"/>
</clipPath>
<clipPath id="clip1_829_372">
<rect width="42" height="42" fill="white" transform="translate(0 26.25)"/>
</clipPath>
</defs>
</svg>
