<svg width="20" height="20" viewBox="0 0 20 20" fill="none" xmlns="http://www.w3.org/2000/svg">
<g clip-path="url(#clip0_763_343)">
<path d="M0.675 0.449998C0.3 0.874998 0.25 1.9 0.25 10.05C0.25 18.575 0.275 19.2 0.7 19.575C1.1 19.95 1.95 20 7.65 20C11.2 20 14.25 19.9 14.4 19.8C15.025 19.4 15.25 18.425 15.25 16.275C15.25 14.425 15.175 14 14.875 14C14.575 14 14.5 14.45 14.5 16.5C14.5 18.7 14.45 19 14.025 19.25C13.375 19.6 1.875 19.6 1.225 19.25C0.775 19 0.75 18.625 0.75 10C0.75 1.375 0.775 0.999998 1.225 0.749998C1.525 0.599998 4.025 0.499998 7.625 0.499998C11.225 0.499998 13.725 0.599998 14.025 0.749998C14.425 0.974998 14.5 1.3 14.5 2.85C14.5 4.6 14.4 4.9 12.25 9.85C10.125 14.75 10 15.15 10 16.775C10 18.85 10.325 19 11.925 17.55C12.85 16.725 13.275 15.875 15.75 10.125C17.275 6.55 18.65 3.525 18.775 3.375C19.225 2.9 18.975 3.75 18 6.025C17 8.35 16.825 9 17.2 9C17.4 9 19.75 3.75 19.75 3.325C19.75 3.2 19.525 2.925 19.25 2.675C18.9 2.375 18.8 2.075 18.9 1.55C19.075 0.749998 18.525 -1.78814e-06 17.775 -1.78814e-06C17.325 -1.78814e-06 16.125 1.15 15.6 2.075C15.35 2.5 15.3 2.45 15.15 1.55C15.05 0.899998 14.825 0.424998 14.525 0.249998C14.225 0.0999982 11.525 -1.78814e-06 7.55 -1.78814e-06C1.6 -1.78814e-06 1.05 0.0249982 0.675 0.449998ZM18.25 1.275C18.25 1.575 18.075 1.75 17.775 1.75C17.1 1.75 16.925 1.375 17.4 0.899998C17.875 0.424998 18.25 0.599998 18.25 1.275ZM17.525 2.375C18.225 2.75 18.25 2.8 17.9 3.575C17.725 4 17.2 5.25 16.75 6.3C16.3 7.375 15.825 8.25 15.7 8.25C15.175 8.25 13.975 7.45 14.075 7.175C15.1 4.65 16.35 2 16.55 2C16.675 2 17.1 2.175 17.525 2.375ZM14.725 8.525C15.15 8.675 15.5 8.875 15.5 8.975C15.5 9.25 12.725 15.6 12.5 15.825C12.3 16.05 10.75 15.375 10.75 15.05C10.75 14.675 13.6 8.25 13.75 8.25C13.85 8.25 14.275 8.375 14.725 8.525ZM11.825 16.475C11.925 16.575 11.675 16.975 11.25 17.375L10.5 18.1V17.025C10.5 16.05 10.55 15.975 11.075 16.125C11.375 16.225 11.7 16.375 11.825 16.475Z" fill="black"/>
<path d="M4 2.75V3.75H6.125C7.375 3.75 8.25 3.65 8.25 3.5C8.25 3.35 7.45 3.25 6.375 3.25C4.675 3.25 4.5 3.2 4.5 2.75C4.5 2.275 4.675 2.25 7.625 2.25C10.575 2.25 10.75 2.275 10.75 2.75C10.75 3.15 10.575 3.25 10 3.25C9.6 3.25 9.25 3.35 9.25 3.5C9.25 3.625 9.7 3.75 10.25 3.75H11.25V2.75V1.75H7.625H4V2.75Z" fill="black"/>
<path d="M2.62515 5.24996C2.55015 5.39996 2.62515 5.54996 2.80015 5.62496C3.42515 5.87496 12.5002 5.62496 12.5752 5.37496C12.6502 5.02496 2.85015 4.89996 2.62515 5.24996Z" fill="black"/>
<path d="M2.62521 7.25C2.52521 7.425 4.25021 7.5 7.60021 7.5C10.8752 7.5 12.7502 7.4 12.7502 7.25C12.7502 6.9 2.82521 6.9 2.62521 7.25Z" fill="black"/>
<path d="M2.62481 9.25C2.72481 9.4 4.32481 9.5 6.64981 9.5C9.04981 9.5 10.4998 9.4 10.4998 9.25C10.4998 9.1 8.99981 9 6.47481 9C3.87481 9 2.52481 9.075 2.62481 9.25Z" fill="black"/>
<path d="M2.62521 11C2.55021 11.125 2.62521 11.325 2.82521 11.4C3.42521 11.625 6.87521 11.4 6.87521 11.125C6.87521 10.775 2.85021 10.65 2.62521 11Z" fill="black"/>
<path d="M2.9 16.275C2.55 16.55 2.25 16.9 2.25 17.025C2.25 17.4 2.925 17.275 3.1 16.875C3.275 16.4 4.225 16.4 4.85 16.875C5.6 17.425 6.65 17.35 7.125 16.7C7.575 16.025 7.2 15.775 6.6 16.35C6.1 16.875 5.925 16.85 4.95 16.25C3.925 15.625 3.725 15.625 2.9 16.275Z" fill="black"/>
</g>
<defs>
<clipPath id="clip0_763_343">
<rect width="20" height="20" fill="white"/>
</clipPath>
</defs>
</svg>
