<svg width="16" height="20" viewBox="0 0 16 20" fill="none" xmlns="http://www.w3.org/2000/svg">
<path d="M11 0.833008H1.83334C0.916672 0.833008 0.166672 1.58301 0.166672 2.49967V13.333C0.166672 13.7913 0.541672 14.1663 1.00001 14.1663C1.45834 14.1663 1.83334 13.7913 1.83334 13.333V3.33301C1.83334 2.87467 2.20834 2.49967 2.66667 2.49967H11C11.4583 2.49967 11.8333 2.12467 11.8333 1.66634C11.8333 1.20801 11.4583 0.833008 11 0.833008ZM14.3333 4.16634H5.16667C4.25 4.16634 3.50001 4.91634 3.50001 5.83301V17.4997C3.50001 18.4163 4.25 19.1663 5.16667 19.1663H14.3333C15.25 19.1663 16 18.4163 16 17.4997V5.83301C16 4.91634 15.25 4.16634 14.3333 4.16634ZM13.5 17.4997H6C5.54167 17.4997 5.16667 17.1247 5.16667 16.6663V6.66634C5.16667 6.20801 5.54167 5.83301 6 5.83301H13.5C13.9583 5.83301 14.3333 6.20801 14.3333 6.66634V16.6663C14.3333 17.1247 13.9583 17.4997 13.5 17.4997Z" fill="#6499C4"/>
</svg>
