<svg width="20" height="20" viewBox="0 0 20 20" fill="none" xmlns="http://www.w3.org/2000/svg">
<path d="M10 7.50375C10.4378 7.50375 10.8713 7.58998 11.2758 7.75751C11.6802 7.92505 12.0478 8.17061 12.3573 8.48018C12.6669 8.78975 12.9125 9.15726 13.08 9.56173C13.2475 9.9662 13.3338 10.3997 13.3338 10.8375C13.3338 11.2753 13.2475 11.7088 13.08 12.1133C12.9125 12.5177 12.6669 12.8852 12.3573 13.1948C12.0478 13.5044 11.6802 13.7499 11.2758 13.9175C10.8713 14.085 10.4378 14.1712 10 14.1712C9.11584 14.1712 8.26789 13.82 7.64269 13.1948C7.01749 12.5696 6.66626 11.7217 6.66626 10.8375C6.66626 9.95333 7.01749 9.10538 7.64269 8.48018C8.26789 7.85498 9.11584 7.50375 10 7.50375ZM10 8.75375C9.44736 8.75375 8.91735 8.97328 8.52657 9.36406C8.13579 9.75484 7.91626 10.2849 7.91626 10.8375C7.91626 11.3901 8.13579 11.9202 8.52657 12.3109C8.91735 12.7017 9.44736 12.9212 10 12.9212C10.5527 12.9212 11.0827 12.7017 11.4734 12.3109C11.8642 11.9202 12.0838 11.3901 12.0838 10.8375C12.0838 10.2849 11.8642 9.75484 11.4734 9.36406C11.0827 8.97328 10.5527 8.75375 10 8.75375ZM10 4.58375C13.845 4.58375 17.1625 7.20875 18.0838 10.8875C18.1058 10.9678 18.1115 11.0517 18.1007 11.1343C18.0898 11.2169 18.0625 11.2965 18.0205 11.3684C17.9784 11.4403 17.9224 11.503 17.8557 11.553C17.7891 11.6029 17.7131 11.639 17.6323 11.6592C17.5515 11.6794 17.4675 11.6832 17.3851 11.6704C17.3028 11.6576 17.2239 11.6285 17.153 11.5848C17.0821 11.5411 17.0207 11.4836 16.9723 11.4158C16.9239 11.348 16.8895 11.2713 16.8713 11.19C16.4845 9.66034 15.5983 8.30348 14.3532 7.33438C13.1081 6.36528 11.5752 5.83935 9.99743 5.83993C8.41963 5.8405 6.88714 6.36754 5.64273 7.33755C4.39833 8.30755 3.51318 9.66506 3.12751 11.195C3.08627 11.3547 2.98354 11.4917 2.84172 11.576C2.69991 11.6603 2.5305 11.6852 2.37046 11.6451C2.21042 11.605 2.07272 11.5032 1.9874 11.362C1.90208 11.2208 1.87606 11.0516 1.91501 10.8912C2.36713 9.08932 3.4082 7.49005 4.87296 6.34732C6.33772 5.20459 8.14222 4.58389 10 4.58375Z" fill="#216DAB"/>
</svg>
