<svg width="24" height="24" viewBox="0 0 24 24" fill="none" xmlns="http://www.w3.org/2000/svg">
<g clip-path="url(#clip0_413_254)">
<path d="M19.0001 9.3V5C19.0001 4.45 18.5501 4 18.0001 4H17.0001C16.4501 4 16.0001 4.45 16.0001 5V6.6L12.6701 3.6C12.2901 3.26 11.7101 3.26 11.3301 3.6L2.9701 11.13C2.6301 11.43 2.8401 12 3.3001 12H5.0001V19C5.0001 19.55 5.4501 20 6.0001 20H9.0001C9.5501 20 10.0001 19.55 10.0001 19V14H14.0001V19C14.0001 19.55 14.4501 20 15.0001 20H18.0001C18.5501 20 19.0001 19.55 19.0001 19V12H20.7001C21.1601 12 21.3801 11.43 21.0301 11.13L19.0001 9.3ZM10.0001 10C10.0001 8.9 10.9001 8 12.0001 8C13.1001 8 14.0001 8.9 14.0001 10H10.0001Z" fill="white"/>
</g>
<defs>
<clipPath id="clip0_413_254">
<rect width="24" height="24" fill="white"/>
</clipPath>
</defs>
</svg>
