<svg width="20" height="20" viewBox="0 0 20 20" fill="none" xmlns="http://www.w3.org/2000/svg">
<g clip-path="url(#clip0_382_322)">
<path d="M10 1.66663C5.40001 1.66663 1.66667 5.39996 1.66667 9.99996C1.66667 14.6 5.40001 18.3333 10 18.3333C14.6 18.3333 18.3333 14.6 18.3333 9.99996C18.3333 5.39996 14.6 1.66663 10 1.66663ZM10 14.1666C9.54167 14.1666 9.16667 13.7916 9.16667 13.3333V9.99996C9.16667 9.54163 9.54167 9.16663 10 9.16663C10.4583 9.16663 10.8333 9.54163 10.8333 9.99996V13.3333C10.8333 13.7916 10.4583 14.1666 10 14.1666ZM10.8333 7.49996H9.16667V5.83329H10.8333V7.49996Z" fill="#124CCC"/>
</g>
<defs>
<clipPath id="clip0_382_322">
<rect width="20" height="20" fill="white"/>
</clipPath>
</defs>
</svg>
