<svg width="107" height="140" viewBox="0 0 107 140" fill="none" xmlns="http://www.w3.org/2000/svg">
<path d="M53.0315 42.4219L92.3808 65.9678C93.5829 66.6042 94.396 67.4704 94.8203 68.5664C95.2445 69.6624 95.4567 70.7407 95.4567 71.8013V120.908C95.4567 122.605 94.8203 124.09 93.5475 125.363C92.2748 126.636 90.7899 127.272 89.0929 127.272H16.9702C15.2732 127.272 13.7883 126.636 12.5155 125.363C11.2428 124.09 10.6064 122.605 10.6064 120.908V71.8013C10.6064 70.7407 10.8362 69.6624 11.2958 68.5664C11.7554 67.4704 12.5509 66.6042 13.6822 65.9678L53.0315 42.4219ZM53.0315 91.8472L88.6686 70.9528L53.0315 49.5281L17.3944 70.9528L53.0315 91.8472ZM53.0315 98.9534L16.9702 77.7408V120.908H89.0929V77.7408L53.0315 98.9534ZM53.0315 120.908H89.0929H16.9702H53.0315Z" fill="#4D5963" fill-opacity="0.588235"/>
<rect width="106.063" height="35.3543" rx="5" fill="#216DAB"/>
<path d="M36.9131 28.9699V26.3231H71.6246V28.9699H36.9131ZM38.5619 17.949L36.8263 16.9944L38.5619 14.044H35.1776V12.0914H38.5619L36.8263 9.14095L38.5619 8.18639L40.2107 11.0935L41.8595 8.18639L43.5951 9.14095L41.8595 12.0914H45.2439V14.044H41.8595L43.5951 16.9944L41.8595 17.949L40.2107 15.0419L38.5619 17.949ZM52.6201 17.949L50.8845 16.9076L52.6201 13.9572H49.2357V12.0047H52.6201L50.8845 9.05418L52.6201 8.09961L54.2689 11.0067L55.9177 8.09961L57.6532 9.05418L55.9177 12.0047H59.302V13.9572H55.9177L57.6532 16.9076L55.9177 17.949L54.2689 15.0419L52.6201 17.949ZM66.6782 17.949L64.9426 16.9076L66.6782 13.9572H63.2939V12.0047H66.6782L64.9426 9.05418L66.6782 8.09961L68.327 11.0067L69.9758 8.09961L71.7114 9.05418L69.9758 12.0047H73.3602V13.9572H69.9758L71.7114 16.9076L69.9758 17.949L68.327 15.0419L66.6782 17.949Z" fill="#F0F6FB"/>
</svg>
