<svg width="20" height="20" viewBox="0 0 20 20" fill="none" xmlns="http://www.w3.org/2000/svg">
<path d="M12.2222 7H7.77774C7.16663 7 6.66663 6.55 6.66663 6C6.66663 5.45 7.16663 5 7.77774 5H12.2222C12.8333 5 13.3333 5.45 13.3333 6C13.3333 6.55 12.8333 7 12.2222 7Z" fill="#323232"/>
<path d="M12.2222 10H7.77774C7.16663 10 6.66663 9.55 6.66663 9C6.66663 8.45 7.16663 8 7.77774 8H12.2222C12.8333 8 13.3333 8.45 13.3333 9C13.3333 9.55 12.8333 10 12.2222 10Z" fill="#323232"/>
<path d="M18.3333 1.5L16.6667 0L15 1.5L13.3333 0L11.6667 1.5L10 0L8.33333 1.5L6.66667 0L5 1.5L3.33333 0V14H1.11111C0.5 14 0 14.45 0 15V17C0 18.66 1.48889 20 3.33333 20H16.6667C18.5111 20 20 18.66 20 17V0L18.3333 1.5ZM13.3333 18H3.33333C2.72222 18 2.22222 17.55 2.22222 17V16H5.55556H10H13.3333V18ZM17.7778 17C17.7778 17.55 17.2778 18 16.6667 18C16.0556 18 15.5556 17.55 15.5556 17V15C15.5556 14.45 15.0556 14 14.4444 14H12.2222H10H5.55556V3H17.7778V17Z" fill="#323232"/>
<path d="M15.5556 7C16.1692 7 16.6667 6.55228 16.6667 6C16.6667 5.44772 16.1692 5 15.5556 5C14.9419 5 14.4445 5.44772 14.4445 6C14.4445 6.55228 14.9419 7 15.5556 7Z" fill="#323232"/>
<path d="M15.5556 10C16.1692 10 16.6667 9.55228 16.6667 9C16.6667 8.44772 16.1692 8 15.5556 8C14.9419 8 14.4445 8.44772 14.4445 9C14.4445 9.55228 14.9419 10 15.5556 10Z" fill="#323232"/>
</svg>
