<svg width="20" height="20" viewBox="0 0 20 20" fill="none" xmlns="http://www.w3.org/2000/svg">
<g clip-path="url(#clip0_763_322)">
<path d="M1.43341 0.633375C1.33341 0.966708 0.966748 1.33338 0.633414 1.43338C8.0806e-05 1.60004 8.07981e-05 1.96671 0.0667475 10.7334L0.166747 19.8334L6.60008 19.9334C12.7334 20 13.0667 19.9667 13.2334 19.3667C13.3334 19.0334 13.6667 18.6667 14.0334 18.5667C14.6001 18.4 14.6667 18.0667 14.6667 15.7334V13.0667L17.3667 8.40004C20.2334 3.43338 20.3667 2.76671 18.8001 2.06671C17.3001 1.36671 16.8334 1.56671 15.8001 3.40004L14.8334 5.16671L14.6667 2.66671L14.5001 0.166709L8.06675 0.0667085C1.93341 4.18797e-05 1.60008 0.0333752 1.43341 0.633375ZM14.0001 3.63338C14.0001 6.46671 13.9334 6.73338 12.7667 8.70004C12.0001 10.0667 11.5001 11.3667 11.4001 12.4L11.2334 14H7.30008C4.86675 14 3.33341 14.1334 3.33341 14.3334C3.33341 14.9 12.0334 14.7334 12.8001 14.1667C13.8667 13.3667 14.0001 13.5667 14.0001 15.8334V18H9.20008H4.36675L4.26675 16.9C4.16675 15.9667 4.03341 15.8334 3.10008 15.7334L2.00008 15.6334V8.13338V0.666709H8.00008H14.0001V3.63338ZM1.33341 9.06671V16.1334L2.56675 17.4L3.80008 18.6667H8.23341C10.9667 18.6667 12.6667 18.8 12.6667 19C12.6667 19.2 10.4334 19.3334 6.66675 19.3334H0.666748V10.6667C0.666748 5.10004 0.800081 2.00004 1.00008 2.00004C1.20008 2.00004 1.33341 4.56671 1.33341 9.06671ZM18.7001 2.66671C19.3667 3.03338 19.5334 3.83338 19.0001 4.16671C18.4667 4.50004 16.6667 3.40004 16.8667 2.83338C17.1001 2.23338 17.7667 2.20004 18.7001 2.66671ZM17.3334 4.50004C18.3001 5.00004 18.6667 5.66671 18.0001 5.66671C17.3334 5.66671 16.0001 4.86671 16.0001 4.43338C16.0001 3.86671 16.1334 3.90004 17.3334 4.50004ZM16.0001 5.73338C15.9667 6.50004 12.9667 11.3667 12.6334 11.1334C12.3667 10.9667 13.5001 8.60004 15.1334 5.90004C15.5667 5.23338 16.0001 5.13338 16.0001 5.73338ZM16.4334 8.63338C14.4001 12.2 14.4001 12.2 14.0334 11.8334C13.5334 11.3334 16.6001 6.00004 17.2334 6.23338C17.5667 6.36671 17.3667 6.93338 16.4334 8.63338ZM13.1334 12.1667C13.8001 12.6667 13.8001 12.6667 13.1334 13.1667C12.2001 13.8667 12.0001 13.7667 12.0001 12.6667C12.0001 11.5667 12.2001 11.4667 13.1334 12.1667ZM3.66675 16.8667C3.66675 17.3334 3.56675 17.3334 3.16675 17C2.90008 16.7667 2.66675 16.5334 2.66675 16.4667C2.66675 16.4 2.90008 16.3334 3.16675 16.3334C3.43341 16.3334 3.66675 16.5667 3.66675 16.8667Z" fill="black"/>
<path d="M3.76662 2.56666C2.79995 3.66666 2.79995 4.46666 3.69995 5.29999C4.16662 5.73333 4.33329 6.19999 4.23329 6.86666C4.09995 7.79999 4.06662 7.79999 3.83329 7.06666C3.69995 6.66666 3.46662 6.33333 3.29995 6.33333C2.73329 6.33333 2.99995 7.23333 3.83329 8.13333L4.66662 9.03333L5.49995 8.13333C6.49995 7.03333 6.56662 6.23333 5.63329 5.36666C5.16662 4.93332 4.99995 4.46666 5.09995 3.79999C5.23329 2.86666 5.26662 2.86666 5.49995 3.56666C5.76662 4.39999 6.33329 4.59999 6.33329 3.86666C6.33329 3.49999 4.86662 1.63332 4.59995 1.69999C4.53329 1.69999 4.16662 2.09999 3.76662 2.56666ZM4.23329 4.56666C4.09995 5.13332 4.09995 5.13332 3.83329 4.56666C3.69995 4.26666 3.69995 3.73332 3.83329 3.39999C4.09995 2.86666 4.09995 2.86666 4.23329 3.39999C4.33329 3.73332 4.33329 4.26666 4.23329 4.56666ZM5.66662 6.66666C5.66662 6.99999 5.53329 7.39999 5.33329 7.49999C5.13329 7.63333 4.99995 7.26666 4.99995 6.66666C4.99995 6.06666 5.13329 5.69999 5.33329 5.83333C5.53329 5.93333 5.66662 6.33333 5.66662 6.66666Z" fill="black"/>
<path d="M7.3335 2.66667C7.3335 2.86667 8.4335 3 10.0002 3C11.5668 3 12.6668 2.86667 12.6668 2.66667C12.6668 2.46667 11.5668 2.33333 10.0002 2.33333C8.4335 2.33333 7.3335 2.46667 7.3335 2.66667Z" fill="black"/>
<path d="M7.3335 4.33341C7.3335 4.53341 8.4335 4.66675 10.0002 4.66675C11.5668 4.66675 12.6668 4.53341 12.6668 4.33341C12.6668 4.13341 11.5668 4.00008 10.0002 4.00008C8.4335 4.00008 7.3335 4.13341 7.3335 4.33341Z" fill="black"/>
<path d="M7.3335 6.00004C7.3335 6.20004 8.4335 6.33337 10.0002 6.33337C11.5668 6.33337 12.6668 6.20004 12.6668 6.00004C12.6668 5.80004 11.5668 5.66671 10.0002 5.66671C8.4335 5.66671 7.3335 5.80004 7.3335 6.00004Z" fill="black"/>
<path d="M7.3335 7.66667C7.3335 7.86667 8.4335 8 10.0002 8C11.5668 8 12.6668 7.86667 12.6668 7.66667C12.6668 7.46667 11.5668 7.33333 10.0002 7.33333C8.4335 7.33333 7.3335 7.46667 7.3335 7.66667Z" fill="black"/>
<path d="M7.3335 9.33341C7.3335 9.53341 8.2335 9.66675 9.3335 9.66675C10.4335 9.66675 11.3335 9.53341 11.3335 9.33341C11.3335 9.13341 10.4335 9.00008 9.3335 9.00008C8.2335 9.00008 7.3335 9.13341 7.3335 9.33341Z" fill="black"/>
<path d="M3.3335 11C3.3335 11.2 4.76683 11.3334 7.00016 11.3334C9.2335 11.3334 10.6668 11.2 10.6668 11C10.6668 10.8 9.2335 10.6667 7.00016 10.6667C4.76683 10.6667 3.3335 10.8 3.3335 11Z" fill="black"/>
<path d="M3.3335 12.6667C3.3335 12.8667 4.76683 13 7.00016 13C9.2335 13 10.6668 12.8667 10.6668 12.6667C10.6668 12.4667 9.2335 12.3333 7.00016 12.3333C4.76683 12.3333 3.3335 12.4667 3.3335 12.6667Z" fill="black"/>
</g>
<defs>
<clipPath id="clip0_763_322">
<rect width="20" height="20" fill="white"/>
</clipPath>
</defs>
</svg>
