<svg width="20" height="20" viewBox="0 0 20 20" fill="none" xmlns="http://www.w3.org/2000/svg">
<g clip-path="url(#clip0_763_315)">
<path d="M0.833333 0.833277L0 1.63328V10.1333V18.6333L0.866667 19.2999C2.03333 20.1999 6.23333 20.3333 6.56667 19.4666C6.86667 18.6666 6.06667 18.3333 3.76667 18.3333H1.66667V9.99994V1.66661H5.5H9.33333V3.16661C9.33333 5.23328 10.4 6.33328 12.4 6.33328C13.4667 6.33328 13.9333 6.49994 14.2667 6.99994C14.8333 7.93328 15.6667 7.49994 15.6667 6.19994C15.6667 5.33328 15.2333 4.69994 13.0667 2.56661L10.5 -5.59774e-05H6.06667C1.8 -5.59774e-05 1.6 0.0332774 0.833333 0.833277ZM12.3333 4.59994C11.6667 4.83328 11 4.36661 11 3.63328V2.89994L11.8667 3.69994C12.3333 4.13328 12.5333 4.53328 12.3333 4.59994Z" fill="black"/>
<path d="M3.60021 7.7C3.26687 7.86667 3.10021 8.23333 3.20021 8.5C3.36688 8.9 4.23354 9 7.86688 9C12.0335 9 12.3335 8.96667 12.3335 8.36667C12.3335 8.03333 12.1002 7.63333 11.8002 7.53333C10.9335 7.2 4.20021 7.33333 3.60021 7.7Z" fill="black"/>
<path d="M12.7667 12.0667C9.96673 14.9333 9.00006 16.1667 8.70006 17.1667C7.96673 19.8333 8.33339 20.3 10.7001 19.6667C11.9001 19.3667 12.8667 18.5667 16.1001 15.4C18.2334 13.2667 20.0001 11.3667 20.0001 11.1667C20.0001 10.6333 17.5334 8.33332 16.9667 8.33332C16.7001 8.33332 14.8001 10.0333 12.7667 12.0667ZM17.7001 10.8667C18.0667 11.3333 17.7001 11.8333 14.8001 14.7C12.6667 16.8 11.1667 18 10.7334 18C10.2001 18 10.0667 17.8667 10.2334 17.4C10.4334 16.8 16.6667 10.3333 17.0334 10.3333C17.1667 10.3333 17.4334 10.5667 17.7001 10.8667Z" fill="black"/>
<path d="M3.23325 11.1333C2.86658 12.0333 3.79992 12.3333 6.99992 12.3333C10.3332 12.3333 11.2332 12.0666 10.8999 11.1999C10.7332 10.7666 10.0666 10.6666 7.03325 10.6666C4.26658 10.6666 3.36658 10.7666 3.23325 11.1333Z" fill="black"/>
<path d="M3.40017 14.0666C2.66684 14.9666 3.46684 15.3666 5.70017 15.2666C7.56684 15.1666 7.8335 15.0999 7.8335 14.4999C7.8335 13.9333 7.56684 13.8333 5.80017 13.7333C4.4335 13.6666 3.66684 13.7666 3.40017 14.0666Z" fill="black"/>
</g>
<defs>
<clipPath id="clip0_763_315">
<rect width="20" height="20" fill="white"/>
</clipPath>
</defs>
</svg>
