<svg width="20" height="20" viewBox="0 0 20 20" fill="none" xmlns="http://www.w3.org/2000/svg">
<path d="M9.552 0.867626L9.54 1.73872L7.556 1.75825C5.872 1.77388 5.56 1.78559 5.5 1.83638C5.336 1.96919 5.32 2.09809 5.32 3.24263V4.33638H5.012C4.604 4.33638 4.268 4.39106 4.064 4.49653C3.824 4.61372 3.54 4.90669 3.432 5.13325C3.34 5.33247 3.34 5.33638 3.32 7.59419L3.3 9.85981L2.088 10.3911C1.38 10.7036 0.832 10.9653 0.772 11.0239C0.688 11.1059 0.668 11.1645 0.672 11.2973C0.676 11.4067 1.14 12.8247 1.976 15.2739C2.696 17.3676 3.28 19.0942 3.28 19.1098C3.28 19.1489 2.86 19.102 2.584 19.0356C2.456 19.0043 2.172 18.895 1.96 18.7895C1.204 18.4184 0.74 18.2817 0.24 18.2817H0V18.7114V19.1411H0.192C0.512 19.1411 0.876 19.2504 1.44 19.5122C1.736 19.6528 2.084 19.8012 2.212 19.8442C2.76 20.0239 3.684 20.0434 4.28 19.8833C4.444 19.8364 4.84 19.6801 5.16 19.5317C5.844 19.2153 6.12 19.1411 6.66 19.1411C7.204 19.1411 7.476 19.2153 8.2 19.5473C8.904 19.8754 9.196 19.9575 9.772 19.9887C10.544 20.0317 11.06 19.9145 11.896 19.5043C12.456 19.2309 12.812 19.1411 13.336 19.1411C13.884 19.1411 14.156 19.2153 14.84 19.5317C15.16 19.6801 15.556 19.8364 15.72 19.8833C16.316 20.0434 17.24 20.0239 17.788 19.8442C17.916 19.8012 18.264 19.6528 18.56 19.5122C19.124 19.2504 19.488 19.1411 19.812 19.1411H20V18.7114V18.2817H19.76C19.26 18.2817 18.796 18.4184 18.04 18.7895C17.828 18.895 17.544 19.0043 17.416 19.0356C17.14 19.102 16.72 19.1489 16.72 19.1098C16.72 19.0942 17.304 17.3676 18.024 15.2739C18.86 12.8247 19.324 11.4067 19.328 11.2973C19.332 11.1645 19.312 11.1059 19.228 11.0239C19.168 10.9653 18.62 10.7036 17.912 10.3911L16.7 9.85981L16.68 7.59419C16.66 5.33638 16.66 5.33247 16.568 5.13325C16.46 4.90669 16.176 4.61372 15.936 4.49653C15.732 4.39106 15.396 4.33638 14.992 4.33638H14.68V3.24263C14.68 2.09809 14.664 1.96919 14.5 1.83638C14.44 1.78559 14.128 1.77388 12.444 1.75825L10.46 1.73872L10.448 0.867626L10.44 0.00043869H10H9.56L9.552 0.867626ZM13.8 3.477V4.33638H10H6.2V3.477V2.61763H10H13.8V3.477ZM15.604 5.31294C15.668 5.35981 15.736 5.45356 15.76 5.5395C15.824 5.76606 15.816 9.46919 15.752 9.44185C15.724 9.43013 14.436 8.86763 12.896 8.18794C11.352 7.50825 10.048 6.95356 10 6.95356C9.952 6.95356 8.648 7.50825 7.104 8.18794C5.564 8.86763 4.276 9.43013 4.252 9.44185C4.212 9.45747 4.2 9.06685 4.2 7.57466C4.2 6.44966 4.216 5.62935 4.24 5.54731C4.26 5.4731 4.328 5.37153 4.388 5.32466L4.5 5.23481H9.992C15.464 5.23481 15.488 5.23481 15.604 5.31294ZM9.552 8.58247L9.54 9.07466L5.764 10.77C3.688 11.6997 1.984 12.4575 1.976 12.4497C1.952 12.4301 1.64 11.5512 1.648 11.5434C1.672 11.52 9.504 8.08638 9.532 8.08638C9.548 8.08638 9.556 8.30903 9.552 8.58247ZM14.416 9.80903C16.576 10.7543 18.344 11.5356 18.352 11.5434C18.36 11.5512 18.048 12.4301 18.024 12.4497C18.016 12.4575 16.312 11.6997 14.236 10.77L10.46 9.07466L10.448 8.58247C10.444 8.30903 10.452 8.08638 10.464 8.08638C10.48 8.08638 12.26 8.85981 14.416 9.80903ZM9.56 12.6372V15.2348H10H10.44V12.6333C10.44 10.5668 10.452 10.0356 10.492 10.0512C10.588 10.0864 17.464 13.1762 17.608 13.2465L17.752 13.3208L16.788 16.1528C16.076 18.2309 15.804 18.9848 15.76 18.9848C15.728 18.9848 15.54 18.9028 15.34 18.8012C14.504 18.3793 14.108 18.2778 13.316 18.2778C12.568 18.2778 12.244 18.3637 11.396 18.7739C10.84 19.0434 10.568 19.1098 10.02 19.1137C9.468 19.1176 9.12 19.0356 8.648 18.8012C7.832 18.3833 7.424 18.2778 6.66 18.2778C5.896 18.2778 5.524 18.3754 4.672 18.7934C4.456 18.8989 4.26 18.9848 4.232 18.9848C4.2 18.9848 3.816 17.9223 3.212 16.1528L2.244 13.3168L2.532 13.1801C2.984 12.9653 9.496 10.0434 9.532 10.0434C9.548 10.0395 9.56 11.2075 9.56 12.6372Z" fill="black"/>
<path d="M6.88 3.47656V3.90625H7.32H7.76V3.47656V3.04688H7.32H6.88V3.47656Z" fill="black"/>
<path d="M8.20001 3.47656V3.90625H8.66001H9.12001V3.47656V3.04688H8.66001H8.20001V3.47656Z" fill="black"/>
<path d="M9.56 3.47656V3.90625H10H10.44V3.47656V3.04688H10H9.56V3.47656Z" fill="black"/>
<path d="M10.88 3.47656V3.90625H11.34H11.8V3.47656V3.04688H11.34H10.88V3.47656Z" fill="black"/>
<path d="M12.24 3.47656V3.90625H12.68H13.12V3.47656V3.04688H12.68H12.24V3.47656Z" fill="black"/>
<path d="M5.12 6.30859V6.75781H10H14.88V6.30859V5.85938H10H5.12V6.30859Z" fill="black"/>
<path d="M5.12 7.61719V8.04688H5.56H6V7.61719V7.1875H5.56H5.12V7.61719Z" fill="black"/>
<path d="M14 7.61719V8.04688H14.44H14.88V7.61719V7.1875H14.44H14V7.61719Z" fill="black"/>
</svg>
