<svg width="20" height="20" viewBox="0 0 20 20" fill="none" xmlns="http://www.w3.org/2000/svg">
<path d="M9.552 0.867199L9.54 1.73829L7.556 1.75782C5.872 1.77345 5.56 1.78517 5.5 1.83595C5.336 1.96876 5.32 2.09767 5.32 3.2422V4.33595H5.012C4.604 4.33595 4.268 4.39064 4.064 4.49611C3.824 4.61329 3.54 4.90626 3.432 5.13282C3.34 5.33204 3.34 5.33595 3.32 7.59376L3.3 9.85939L2.088 10.3906C1.38 10.7031 0.832 10.9649 0.772 11.0234C0.688 11.1055 0.668 11.1641 0.672 11.2969C0.676 11.4063 1.14 12.8242 1.976 15.2734C2.696 17.3672 3.28 19.0938 3.28 19.1094C3.28 19.1484 2.86 19.1016 2.584 19.0352C2.456 19.0039 2.172 18.8945 1.96 18.7891C1.204 18.418 0.74 18.2813 0.24 18.2813H0V18.7109V19.1406H0.192C0.512 19.1406 0.876 19.25 1.44 19.5117C1.736 19.6524 2.084 19.8008 2.212 19.8438C2.76 20.0234 3.684 20.043 4.28 19.8828C4.444 19.8359 4.84 19.6797 5.16 19.5313C5.844 19.2149 6.12 19.1406 6.66 19.1406C7.204 19.1406 7.476 19.2149 8.2 19.5469C8.904 19.875 9.196 19.957 9.772 19.9883C10.544 20.0313 11.06 19.9141 11.896 19.5039C12.456 19.2305 12.812 19.1406 13.336 19.1406C13.884 19.1406 14.156 19.2149 14.84 19.5313C15.16 19.6797 15.556 19.8359 15.72 19.8828C16.316 20.043 17.24 20.0234 17.788 19.8438C17.916 19.8008 18.264 19.6524 18.56 19.5117C19.124 19.25 19.488 19.1406 19.812 19.1406H20V18.7109V18.2813H19.76C19.26 18.2813 18.796 18.418 18.04 18.7891C17.828 18.8945 17.544 19.0039 17.416 19.0352C17.14 19.1016 16.72 19.1484 16.72 19.1094C16.72 19.0938 17.304 17.3672 18.024 15.2734C18.86 12.8242 19.324 11.4063 19.328 11.2969C19.332 11.1641 19.312 11.1055 19.228 11.0234C19.168 10.9649 18.62 10.7031 17.912 10.3906L16.7 9.85939L16.68 7.59376C16.66 5.33595 16.66 5.33204 16.568 5.13282C16.46 4.90626 16.176 4.61329 15.936 4.49611C15.732 4.39064 15.396 4.33595 14.992 4.33595H14.68V3.2422C14.68 2.09767 14.664 1.96876 14.5 1.83595C14.44 1.78517 14.128 1.77345 12.444 1.75782L10.46 1.73829L10.448 0.867199L10.44 1.14441e-05H10H9.56L9.552 0.867199ZM13.8 3.47657V4.33595H10H6.2V3.47657V2.6172H10H13.8V3.47657ZM15.604 5.31251C15.668 5.35939 15.736 5.45314 15.76 5.53907C15.824 5.76564 15.816 9.46876 15.752 9.44142C15.724 9.4297 14.436 8.8672 12.896 8.18751C11.352 7.50782 10.048 6.95314 10 6.95314C9.952 6.95314 8.648 7.50782 7.104 8.18751C5.564 8.8672 4.276 9.4297 4.252 9.44142C4.212 9.45704 4.2 9.06642 4.2 7.57423C4.2 6.44923 4.216 5.62892 4.24 5.54689C4.26 5.47267 4.328 5.37111 4.388 5.32423L4.5 5.23439H9.992C15.464 5.23439 15.488 5.23439 15.604 5.31251ZM9.552 8.58204L9.54 9.07423L5.764 10.7695C3.688 11.6992 1.984 12.457 1.976 12.4492C1.952 12.4297 1.64 11.5508 1.648 11.543C1.672 11.5195 9.504 8.08595 9.532 8.08595C9.548 8.08595 9.556 8.30861 9.552 8.58204ZM14.416 9.80861C16.576 10.7539 18.344 11.5352 18.352 11.543C18.36 11.5508 18.048 12.4297 18.024 12.4492C18.016 12.457 16.312 11.6992 14.236 10.7695L10.46 9.07423L10.448 8.58204C10.444 8.30861 10.452 8.08595 10.464 8.08595C10.48 8.08595 12.26 8.85939 14.416 9.80861ZM9.56 12.6367V15.2344H10H10.44V12.6328C10.44 10.5664 10.452 10.0352 10.492 10.0508C10.588 10.0859 17.464 13.1758 17.608 13.2461L17.752 13.3203L16.788 16.1524C16.076 18.2305 15.804 18.9844 15.76 18.9844C15.728 18.9844 15.54 18.9024 15.34 18.8008C14.504 18.3789 14.108 18.2774 13.316 18.2774C12.568 18.2774 12.244 18.3633 11.396 18.7734C10.84 19.043 10.568 19.1094 10.02 19.1133C9.468 19.1172 9.12 19.0352 8.648 18.8008C7.832 18.3828 7.424 18.2774 6.66 18.2774C5.896 18.2774 5.524 18.375 4.672 18.793C4.456 18.8984 4.26 18.9844 4.232 18.9844C4.2 18.9844 3.816 17.9219 3.212 16.1524L2.244 13.3164L2.532 13.1797C2.984 12.9649 9.496 10.043 9.532 10.043C9.548 10.0391 9.56 11.207 9.56 12.6367Z" fill="#9CD2FF"/>
<path d="M6.87988 3.47614V3.90582H7.31988H7.75988V3.47614V3.04645H7.31988H6.87988V3.47614Z" fill="#9CD2FF"/>
<path d="M8.19995 3.47614V3.90582H8.65995H9.11995V3.47614V3.04645H8.65995H8.19995V3.47614Z" fill="#9CD2FF"/>
<path d="M9.56006 3.47614V3.90582H10.0001H10.4401V3.47614V3.04645H10.0001H9.56006V3.47614Z" fill="#9CD2FF"/>
<path d="M10.8799 3.47614V3.90582H11.3399H11.7999V3.47614V3.04645H11.3399H10.8799V3.47614Z" fill="#9CD2FF"/>
<path d="M12.24 3.47614V3.90582H12.68H13.12V3.47614V3.04645H12.68H12.24V3.47614Z" fill="#9CD2FF"/>
<path d="M5.12012 6.30817V6.75739H10.0001H14.8801V6.30817V5.85895H10.0001H5.12012V6.30817Z" fill="#9CD2FF"/>
<path d="M5.12012 7.61676V8.04645H5.56012H6.00012V7.61676V7.18707H5.56012H5.12012V7.61676Z" fill="#9CD2FF"/>
<path d="M14 7.61676V8.04645H14.44H14.88V7.61676V7.18707H14.44H14V7.61676Z" fill="#9CD2FF"/>
</svg>
